<svg width="60" height="60" viewBox="0 0 60 60" fill="none" xmlns="http://www.w3.org/2000/svg">
<g clip-path="url(#clip0_236_2604)">
<path d="M1.8667 40.4333C6.10503 51.8583 17.1 60 30 60C42.9 60 53.895 51.8583 58.1334 40.4333L30 37.8267L1.8667 40.4333Z" fill="#FFDA44"/>
<path d="M30 0C17.1 0 6.10503 8.14167 1.8667 19.5667L30 22.1733L58.1334 19.565C53.895 8.14167 42.9 0 30 0Z" fill="#3D3D3D"/>
<path d="M1.86668 19.5666C0.628793 22.9056 -0.00333655 26.4388 1.48674e-05 29.9999C-0.00353488 33.5616 0.628598 37.0954 1.86668 40.4349H58.1333C59.3715 37.0954 60.0035 33.5616 60 29.9999C60.0035 26.4383 59.3715 22.9046 58.1333 19.5649H1.86668V19.5666Z" fill="#D80027"/>
</g>
<defs>
<clipPath id="clip0_236_2604">
<rect width="60" height="60" fill="white"/>
</clipPath>
</defs>
</svg>
