<svg width="60" height="61" viewBox="0 0 60 61" fill="none" xmlns="http://www.w3.org/2000/svg">
<g clip-path="url(#clip0_236_2965)">
<path d="M5.28362 13.4854C3.34903 16.2933 1.87879 19.4462 0.987305 22.8349H14.6337L5.28362 13.4854Z" fill="#29337A"/>
<path d="M21.5981 1.68481C18.1416 2.69144 14.9404 4.29772 12.1216 6.3928L21.5981 15.8693V1.68481Z" fill="#29337A"/>
<path d="M12.8267 55.0755C15.4707 56.9258 18.4247 58.3581 21.5984 59.2823V46.3052L12.8267 55.0755Z" fill="#29337A"/>
<path d="M1.33154 39.342C2.32348 42.5551 3.84349 45.536 5.78607 48.1876L14.6317 39.342H1.33154Z" fill="#29337A"/>
<path d="M5.77823 12.7888C5.61052 13.0181 5.44522 13.2506 5.28321 13.4856L14.6333 22.8352H0.986895C0.765733 23.6769 0.585231 24.5349 0.436523 25.4046H18.395L5.77823 12.7888Z" fill="white"/>
<path d="M12.1304 54.5804C12.3586 54.7506 12.5932 54.9124 12.8262 55.0755L21.5979 46.3047V59.2818C22.4406 59.5282 23.2965 59.7409 24.1672 59.9119V42.5439L12.1304 54.5804Z" fill="white"/>
<path d="M0.664551 36.7727C0.850752 37.6433 1.07052 38.5007 1.33057 39.342H14.6308L5.78522 48.1876C6.74726 49.5021 7.81406 50.7356 8.9732 51.8762L24.0766 36.7727H0.664551Z" fill="white"/>
<path d="M21.5982 1.68473V15.8692L12.1216 6.39323C10.8151 7.36477 9.59393 8.44335 8.4624 9.61097L24.1671 25.3156V1.05469C23.2968 1.2267 22.4409 1.43988 21.5982 1.68473Z" fill="white"/>
<path d="M21.5974 39.2515L21.5083 39.3411H21.5974V39.2515Z" fill="#D32030"/>
<path d="M24.0776 36.7716H24.1666V36.6821L24.0776 36.7716Z" fill="#D32030"/>
<path d="M35.6218 25.4043H35.5361V25.4905L35.6218 25.4043Z" fill="#D32030"/>
<path d="M21.6857 22.8344L21.5981 22.7463V22.8344H21.6857Z" fill="#D32030"/>
<path d="M24.1675 25.3154V25.4031H24.2552L24.1675 25.3154Z" fill="#D32030"/>
<path d="M38.1045 52.6411V59.366C41.3194 58.4661 44.3169 57.0474 46.998 55.1991L39.7113 47.9124C39.129 49.9582 38.9159 51.0158 38.1045 52.6411Z" fill="#252F6C"/>
<path d="M39.7497 14.2237L47.7043 6.26905C44.8465 4.17624 41.6046 2.58137 38.1045 1.60083V8.50904C39.0401 10.3825 39.1187 11.8059 39.7497 14.2237Z" fill="#252F6C"/>
<path d="M54.0907 48.3622C56.094 45.6673 57.6553 42.6254 58.6694 39.3418H45.0703L54.0907 48.3622Z" fill="#252F6C"/>
<path d="M59.0128 22.8352C58.1023 19.3749 56.588 16.1628 54.5923 13.3108L45.0669 22.8352H59.0128Z" fill="#252F6C"/>
<path d="M41.5015 37.2808L43.563 39.3423L53.4308 49.2101C53.6549 48.9296 53.8774 48.6502 54.0916 48.3627L45.0712 39.3423H58.6703C58.9294 38.5015 59.1496 37.6437 59.3353 36.7729H41.6943C41.6654 37.1372 41.536 36.9189 41.5015 37.2808Z" fill="#E7E7E7"/>
<path d="M39.4382 15.7281L48.3818 6.78344C48.1577 6.60965 47.9333 6.43675 47.7044 6.26904L39.7498 14.2237C39.8322 14.5382 39.3614 15.406 39.4382 15.7281Z" fill="#E7E7E7"/>
<path d="M38.105 7.95616V1.60022C37.2633 1.36437 36.4064 1.16449 35.5356 1.00146V4.10179C36.4916 5.13818 37.3485 6.43995 38.105 7.95616Z" fill="#E7E7E7"/>
<path d="M41.299 25.4041H59.5639C59.4155 24.5344 59.2346 23.677 59.0135 22.8348H45.0676L54.593 13.3104C53.6566 11.9726 52.6159 10.7146 51.479 9.54883L40.75 20.2768C41.0389 22.2228 41.1683 23.353 41.299 25.4041Z" fill="#E7E7E7"/>
<path d="M39.2783 47.4778L46.999 55.1993C48.2831 54.3149 49.4924 53.3306 50.6208 52.262L40.4654 42.1062C40.1413 43.9844 39.7567 45.7986 39.2783 47.4778Z" fill="#E7E7E7"/>
<path d="M35.5361 56.509V59.9645C36.4067 59.8025 37.2632 59.6016 38.1055 59.3658V52.6409C37.3485 54.1577 36.4916 55.474 35.5361 56.509Z" fill="#E7E7E7"/>
<path d="M40.7499 20.2769L51.4779 9.54886C50.5121 8.55692 49.4766 7.63377 48.3814 6.78345L39.9517 15.2146C40.3263 16.7806 40.4965 18.5731 40.7499 20.2769Z" fill="#D71F28"/>
<path d="M28.5024 0.520874C29.0023 0.49668 29.5006 0.483887 29.9993 0.483887C29.4977 0.483887 28.9985 0.49668 28.5024 0.520874Z" fill="#D32030"/>
<path d="M29.9994 60.4839C29.5005 60.4839 29.0022 60.4702 28.5034 60.446C28.9994 60.4711 29.4978 60.4839 29.9994 60.4839Z" fill="#D32030"/>
<path d="M29.9995 60.484C31.8923 60.484 33.7406 60.3007 35.5359 59.9648V56.5093C33.96 58.2174 32.1165 60.484 29.9995 60.484Z" fill="#D32030"/>
<path d="M59.5635 25.4041H41.536C41.7747 29.1666 41.7459 33.0357 41.4497 36.7725H59.3352C59.7682 34.7436 60.0002 32.6415 60.0002 30.4843C60.0002 28.7515 59.8458 27.0567 59.5635 25.4041Z" fill="#D71F28"/>
<path d="M41.5012 37.2808C41.3345 39.0534 40.7538 40.4345 40.4648 42.1067L50.6202 52.262C51.6249 51.3099 52.5642 50.2914 53.4301 49.2101L43.5626 39.3418L41.5012 37.2808Z" fill="#D71F28"/>
<path d="M35.536 4.32496V1.00208C33.7413 0.667175 31.8929 0.483887 29.9995 0.483887C32.1165 0.483887 33.96 2.61735 35.536 4.32496Z" fill="#D32030"/>
<path d="M38.105 53.9386C38.9164 52.313 39.6122 50.4415 40.1949 48.396L38.105 46.3062V53.9386Z" fill="#29337A"/>
<path d="M40.4549 13.5189C39.823 11.1011 39.0405 8.9032 38.105 7.02979V15.8678L40.4549 13.5189Z" fill="#29337A"/>
<path d="M42.0836 37.8627C42.1177 37.5008 42.1485 37.1375 42.1779 36.7727H40.9937L42.0836 37.8627Z" fill="white"/>
<path d="M38.105 15.8679V7.02942C37.348 5.51321 36.4916 4.21056 35.5356 3.17505V19.63L40.6955 14.4701C40.6178 14.148 40.5362 13.8325 40.4548 13.518L38.105 15.8679Z" fill="white"/>
<path d="M35.6226 25.4043H42.2636C42.1334 23.3533 41.9259 21.3354 41.6374 19.3899L35.6226 25.4043Z" fill="white"/>
<path d="M35.5361 57.7926C36.4921 56.7562 37.3485 55.4544 38.1055 53.9382V46.3057L40.1954 48.3956C40.6747 46.7155 41.0768 44.9206 41.4019 43.0425L35.5363 37.1772L35.5361 57.7926Z" fill="white"/>
<path d="M35.536 57.7925V37.1771L41.4012 43.0427C41.6897 41.3701 41.9167 39.6355 42.0828 37.8625L40.9929 36.7726H42.1771C42.4731 33.0356 42.502 29.1665 42.2633 25.4041H35.6223L41.6367 19.3897C41.3833 17.6854 41.0698 16.0369 40.6951 14.4704L35.5361 19.6302V3.17532C33.96 1.46721 32.1165 0.483887 29.9995 0.483887C29.5007 0.483887 29.0024 0.49668 28.5027 0.520874C27.0271 0.594721 25.5801 0.776236 24.1675 1.05478V25.3156L8.46242 9.61094C7.49747 10.6067 6.5999 11.6676 5.77846 12.7889L15.8249 22.8353L18.3951 25.4046H0.436751C0.155421 27.0568 0 28.7516 0 30.4844C0 32.6421 0.233069 34.7437 0.665006 36.7726H24.0775L8.97403 51.8761C9.96306 52.8476 11.016 53.7524 12.1307 54.5803L24.1671 42.5439V59.9121C25.5795 60.1907 27.0276 60.372 28.5032 60.446C29.002 60.4702 29.5003 60.4839 29.9991 60.4839C32.1165 60.4839 33.96 59.5006 35.536 57.7925Z" fill="#E51D35"/>
</g>
<defs>
<clipPath id="clip0_236_2965">
<rect width="60" height="60" fill="white" transform="translate(0 0.483887)"/>
</clipPath>
</defs>
</svg>
