<svg width="60" height="60" viewBox="0 0 60 60" fill="none" xmlns="http://www.w3.org/2000/svg">
<g clip-path="url(#clip0_236_2593)">
<path d="M30.0012 59.9999C46.569 59.9999 59.9999 46.569 59.9999 30.0012C59.9999 13.4333 46.569 0.00244141 30.0012 0.00244141C13.4333 0.00244141 0.00244141 13.4333 0.00244141 30.0012C0.00244141 46.569 13.4333 59.9999 30.0012 59.9999Z" fill="white"/>
<path d="M58.2853 19.9973H39.8013C40.6042 26.4058 40.6089 33.467 39.8169 39.8835H58.3247C59.4051 36.788 59.9991 33.4637 59.9991 30.0001C59.9996 26.4911 59.3918 23.126 58.2853 19.9973Z" fill="#2B479D"/>
<path d="M39.8011 19.9974H58.2847C58.2819 19.9879 58.279 19.9799 58.2752 19.9713C54.436 9.14534 44.5596 1.18034 32.6934 0.123047C37.2858 2.64019 38.6272 10.6152 39.8011 19.9974Z" fill="#EFECEC"/>
<path d="M32.6948 59.8754C44.5823 58.8162 54.4724 50.8237 58.2969 39.9688C58.3069 39.9399 58.3154 39.9114 58.3258 39.8835H39.8176C38.6528 49.3165 37.3057 57.3477 32.6948 59.8754Z" fill="#E63026"/>
<path d="M0 30.0001C0 33.4643 0.594959 36.788 1.67442 39.8835H41.3611C42.154 33.4665 42.1483 26.4058 41.3464 19.9973H1.71432C0.607752 23.1261 0 26.4912 0 30.0001Z" fill="#3757A6"/>
<path d="M1.72386 19.9716C1.72107 19.9801 1.71816 19.9882 1.71436 19.9977H41.3465C40.1718 10.6154 37.2861 2.64051 32.6942 0.123365C31.8061 0.0447046 30.908 0.000244142 29.9995 0.000244142C16.9491 0.000117474 5.85107 8.33499 1.72386 19.9716Z" fill="#EFEFEF"/>
<path d="M41.361 39.8835H1.67432C1.68432 39.9115 1.6937 39.9399 1.7032 39.9688C5.81395 51.6351 16.9279 59.9995 29.9993 59.9995C30.9079 59.9995 31.8059 59.9549 32.694 59.8754C37.3053 57.3479 40.1962 49.3166 41.361 39.8835Z" fill="#E73B36"/>
</g>
<defs>
<clipPath id="clip0_236_2593">
<rect width="60" height="60" fill="white"/>
</clipPath>
</defs>
</svg>
